<svg xmlns="http://www.w3.org/2000/svg"  viewBox="0 0 40 40" width="144px" height="144px"><path fill="none" stroke="#66798f" stroke-miterlimit="10" stroke-width="2" d="M14,11V8c0-1.105,0.895-2,2-2h8	c1.105,0,2,0.895,2,2v3"/><path fill="#ffeea3" d="M1.5 17.5H38.5V34.5H1.5z"/><path fill="#ba9b48" d="M38,18v16H2V18H38 M39,17H1v18h38V17L39,17z"/><path fill="#e1ebf2" d="M1.5,19.5V12c0-0.827,0.673-1.5,1.5-1.5h34c0.827,0,1.5,0.673,1.5,1.5v7.5H1.5z"/><path fill="#788b9c" d="M37,11c0.551,0,1,0.449,1,1v7H2v-7c0-0.551,0.449-1,1-1H37 M37,10H3c-1.105,0-2,0.895-2,2v8h38v-8 C39,10.895,38.105,10,37,10L37,10z"/><g><path fill="#fff" d="M27.5 16.5H31.5V22.5H27.5z"/><path fill="#788b9c" d="M31,17v5h-3v-5H31 M32,16h-5v7h5V16L32,16z"/></g><g><path fill="#fff" d="M8.5 16.5H12.5V22.5H8.5z"/><path fill="#788b9c" d="M12,17v5H9v-5H12 M13,16H8v7h5V16L13,16z"/></g></svg>